<?xml version="1.0" standalone="no"?>
<!DOCTYPE svg PUBLIC "-//W3C//DTD SVG 20010904//EN"
 "http://www.w3.org/TR/2001/REC-SVG-20010904/DTD/svg10.dtd">
<svg version="1.0" xmlns="http://www.w3.org/2000/svg"
 width="500.000000pt" height="500.000000pt" viewBox="0 0 500.000000 500.000000"
 preserveAspectRatio="xMidYMid meet">

<g transform="translate(0.000000,500.000000) scale(0.100000,-0.100000)"
fill="#000000" stroke="none">
<path d="M1443 4929 c-529 -40 -830 -313 -939 -849 -16 -78 -18 -205 -21
-1455 -3 -988 -1 -1402 7 -1485 46 -458 260 -769 617 -899 152 -56 226 -66
473 -66 209 1 232 3 326 27 84 22 155 46 242 85 8 3 12 -6 12 -31 l0 -36 360
0 360 0 0 1000 0 1000 420 0 420 0 0 -1000 0 -1000 370 0 370 0 0 2330 0 2330
-370 0 -370 0 0 -1000 0 -1000 -420 0 -420 0 0 1000 0 1000 -360 0 -360 0 0
-34 0 -34 -85 34 c-109 45 -229 71 -389 84 -71 5 -132 9 -135 9 -3 -1 -52 -5
-108 -10z m289 -679 c57 -16 130 -71 165 -124 63 -92 66 -116 71 -483 l3 -333
95 0 94 0 0 -245 0 -245 -260 0 -260 0 0 -335 0 -335 165 0 165 0 0 -482 c0
-526 -4 -573 -56 -668 -59 -108 -184 -165 -348 -158 -80 3 -102 8 -159 36
-117 58 -166 137 -187 297 -7 53 -10 529 -8 1430 3 1258 5 1354 21 1409 38
129 126 215 247 243 61 14 194 10 252 -7z"/>
</g>
</svg>
