<?xml version="1.0" encoding="UTF-8"?>
<!DOCTYPE svg PUBLIC "-//W3C//DTD SVG 1.1//EN" "http://www.w3.org/Graphics/SVG/1.1/DTD/svg11.dtd">
<svg xmlns="http://www.w3.org/2000/svg" version="1.1" width="500px" height="500px" style="shape-rendering:geometricPrecision; text-rendering:geometricPrecision; image-rendering:optimizeQuality; fill-rule:evenodd; clip-rule:evenodd" xmlns:xlink="http://www.w3.org/1999/xlink">
<g><path style="opacity:1" fill="#fcf7f5" d="M -0.5,-0.5 C 166.167,-0.5 332.833,-0.5 499.5,-0.5C 499.5,166.167 499.5,332.833 499.5,499.5C 332.833,499.5 166.167,499.5 -0.5,499.5C -0.5,332.833 -0.5,166.167 -0.5,-0.5 Z"/></g>
<g><path style="opacity:1" fill="#f8d0d1" d="M 109.5,33.5 C 109.5,46.8333 109.5,60.1667 109.5,73.5C 115.5,73.5 121.5,73.5 127.5,73.5C 121.355,74.4902 115.022,74.8235 108.5,74.5C 108.171,60.6565 108.504,46.9898 109.5,33.5 Z"/></g>
<g><path style="opacity:1" fill="#e6414b" d="M 109.5,33.5 C 160.5,33.5 211.5,33.5 262.5,33.5C 262.5,45.1667 262.5,56.8333 262.5,68.5C 254.954,68.309 247.621,69.4757 240.5,72C 234.819,74.5074 231.152,78.674 229.5,84.5C 227.07,89.0928 225.57,94.0928 225,99.5C 224.5,107.159 224.334,114.826 224.5,122.5C 224.5,147.5 224.5,172.5 224.5,197.5C 252.167,198.833 279.833,198.833 307.5,197.5C 319.833,197.5 332.167,197.5 344.5,197.5C 353.318,198.493 362.318,198.827 371.5,198.5C 371.5,165.833 371.5,133.167 371.5,100.5C 371.782,92.1641 372.116,83.8308 372.5,75.5C 373.404,74.791 373.737,73.791 373.5,72.5C 368.305,72.1795 363.305,72.5128 358.5,73.5C 355.5,73.5 352.5,73.5 349.5,73.5C 344.167,73.5 338.833,73.5 333.5,73.5C 333.5,60.1667 333.5,46.8333 333.5,33.5C 384.5,33.5 435.5,33.5 486.5,33.5C 486.5,45.1667 486.5,56.8333 486.5,68.5C 477.423,68.4362 468.757,70.2695 460.5,74C 454.807,78.8813 451.307,85.0479 450,92.5C 448.688,177.143 448.022,261.81 448,346.5C 447.389,353.164 446.889,359.83 446.5,366.5C 459.824,365.859 473.157,365.526 486.5,365.5C 486.5,379.167 486.5,392.833 486.5,406.5C 443.167,406.5 399.833,406.5 356.5,406.5C 348.833,406.5 341.167,406.5 333.5,406.5C 333.5,394.833 333.5,383.167 333.5,371.5C 341.351,371.136 349.017,369.803 356.5,367.5C 363.134,363.342 367.301,357.342 369,349.5C 370.946,339.26 371.779,328.926 371.5,318.5C 371.5,305.5 371.5,292.5 371.5,279.5C 371.5,265.833 371.5,252.167 371.5,238.5C 358.656,238.171 345.989,238.505 333.5,239.5C 297.167,239.5 260.833,239.5 224.5,239.5C 224.667,275.168 224.5,310.835 224,346.5C 223.547,353.177 223.047,359.844 222.5,366.5C 235.824,365.859 249.157,365.526 262.5,365.5C 262.5,379.167 262.5,392.833 262.5,406.5C 224.5,406.5 186.5,406.5 148.5,406.5C 135.5,406.5 122.5,406.5 109.5,406.5C 109.5,394.833 109.5,383.167 109.5,371.5C 113.519,371.354 117.519,371.021 121.5,370.5C 134.52,369.314 142.353,362.314 145,349.5C 145.83,344.857 146.497,340.19 147,335.5C 147.5,272.168 147.667,208.834 147.5,145.5C 147.5,127.167 147.5,108.833 147.5,90.5C 148.445,85.5947 148.779,80.5947 148.5,75.5C 149.404,74.791 149.737,73.791 149.5,72.5C 144.305,72.1795 139.305,72.5128 134.5,73.5C 132.167,73.5 129.833,73.5 127.5,73.5C 121.5,73.5 115.5,73.5 109.5,73.5C 109.5,60.1667 109.5,46.8333 109.5,33.5 Z"/></g>
<g><path style="opacity:1" fill="#f7cacb" d="M 333.5,33.5 C 333.5,46.8333 333.5,60.1667 333.5,73.5C 338.833,73.5 344.167,73.5 349.5,73.5C 344.025,74.4889 338.358,74.8222 332.5,74.5C 332.171,60.6565 332.504,46.9898 333.5,33.5 Z"/></g>
<g><path style="opacity:1" fill="#f3a1a4" d="M 358.5,73.5 C 363.305,72.5128 368.305,72.1795 373.5,72.5C 373.737,73.791 373.404,74.791 372.5,75.5C 368.285,73.5636 363.619,72.8969 358.5,73.5 Z"/></g>
<g><path style="opacity:1" fill="#f3a5a8" d="M 134.5,73.5 C 139.305,72.5128 144.305,72.1795 149.5,72.5C 149.737,73.791 149.404,74.791 148.5,75.5C 144.285,73.5636 139.619,72.8969 134.5,73.5 Z"/></g>
<g><path style="opacity:1" fill="#582434" d="M 229.5,84.5 C 256.097,88.1055 281.263,96.1055 305,108.5C 305.138,101.456 304.638,94.4557 303.5,87.5C 317.15,86.5008 330.817,86.1675 344.5,86.5C 344.5,123.5 344.5,160.5 344.5,197.5C 332.167,197.5 319.833,197.5 307.5,197.5C 307.672,196.508 307.338,195.842 306.5,195.5C 295.457,152.786 268.123,128.453 224.5,122.5C 224.334,114.826 224.5,107.159 225,99.5C 225.57,94.0928 227.07,89.0928 229.5,84.5 Z"/></g>
<g><path style="opacity:1" fill="#582434" d="M 147.5,90.5 C 147.5,108.833 147.5,127.167 147.5,145.5C 127.354,165.442 114.187,189.442 108,217.5C 101.416,252.015 100.75,286.682 106,321.5C 109.265,338.46 114.432,354.794 121.5,370.5C 117.519,371.021 113.519,371.354 109.5,371.5C 109.5,383.167 109.5,394.833 109.5,406.5C 122.5,406.5 135.5,406.5 148.5,406.5C 162.321,419.184 178.654,427.017 197.5,430C 222.515,431.258 247.181,428.924 271.5,423C 276.954,421.127 282.287,418.96 287.5,416.5C 287.994,383.804 288.994,351.137 290.5,318.5C 277.185,319.333 263.851,319.666 250.5,319.5C 250.5,306.167 250.5,292.833 250.5,279.5C 290.5,279.5 330.5,279.5 370.5,279.5C 370.833,279.5 371.167,279.5 371.5,279.5C 371.5,292.5 371.5,305.5 371.5,318.5C 364.928,322.276 360.761,327.943 359,335.5C 356.905,346.062 356.072,356.728 356.5,367.5C 349.017,369.803 341.351,371.136 333.5,371.5C 333.5,383.167 333.5,394.833 333.5,406.5C 341.167,406.5 348.833,406.5 356.5,406.5C 356.5,419.833 356.5,433.167 356.5,446.5C 345.451,446.15 334.451,446.65 323.5,448C 293.643,456.304 263.643,463.97 233.5,471C 209.787,473.332 186.121,472.998 162.5,470C 93.2206,455.391 48.0539,414.224 27,346.5C 10.9297,285.531 17.5964,227.198 47,171.5C 67.0176,136.48 95.5176,110.98 132.5,95C 137.304,92.7868 142.304,91.2868 147.5,90.5 Z"/></g>
<g><path style="opacity:1" fill="#f5b6b8" d="M 371.5,100.5 C 371.5,133.167 371.5,165.833 371.5,198.5C 362.318,198.827 353.318,198.493 344.5,197.5C 353.167,197.5 361.833,197.5 370.5,197.5C 370.168,164.996 370.502,132.662 371.5,100.5 Z"/></g>
<g><path style="opacity:1" fill="#fcf7f5" d="M 224.5,122.5 C 268.123,128.453 295.457,152.786 306.5,195.5C 279.52,197.491 252.187,198.158 224.5,197.5C 224.5,172.5 224.5,147.5 224.5,122.5 Z"/></g>
<g><path style="opacity:1" fill="#fcf5f3" d="M 147.5,145.5 C 147.667,208.834 147.5,272.168 147,335.5C 146.497,340.19 145.83,344.857 145,349.5C 142.353,362.314 134.52,369.314 121.5,370.5C 114.432,354.794 109.265,338.46 106,321.5C 100.75,286.682 101.416,252.015 108,217.5C 114.187,189.442 127.354,165.442 147.5,145.5 Z"/></g>
<g><path style="opacity:1" fill="#f09b9f" d="M 306.5,195.5 C 307.338,195.842 307.672,196.508 307.5,197.5C 279.833,198.833 252.167,198.833 224.5,197.5C 252.187,198.158 279.52,197.491 306.5,195.5 Z"/></g>
<g><path style="opacity:1" fill="#fcf6f4" d="M 333.5,239.5 C 345.833,239.5 358.167,239.5 370.5,239.5C 370.5,252.833 370.5,266.167 370.5,279.5C 330.5,279.5 290.5,279.5 250.5,279.5C 250.5,292.833 250.5,306.167 250.5,319.5C 263.851,319.666 277.185,319.333 290.5,318.5C 288.994,351.137 287.994,383.804 287.5,416.5C 282.287,418.96 276.954,421.127 271.5,423C 247.181,428.924 222.515,431.258 197.5,430C 178.654,427.017 162.321,419.184 148.5,406.5C 186.5,406.5 224.5,406.5 262.5,406.5C 262.5,392.833 262.5,379.167 262.5,365.5C 249.157,365.526 235.824,365.859 222.5,366.5C 223.047,359.844 223.547,353.177 224,346.5C 224.5,310.835 224.667,275.168 224.5,239.5C 260.833,239.5 297.167,239.5 333.5,239.5 Z"/></g>
<g><path style="opacity:1" fill="#f4b4b6" d="M 333.5,239.5 C 345.989,238.505 358.656,238.171 371.5,238.5C 371.5,252.167 371.5,265.833 371.5,279.5C 371.167,279.5 370.833,279.5 370.5,279.5C 370.5,266.167 370.5,252.833 370.5,239.5C 358.167,239.5 345.833,239.5 333.5,239.5 Z"/></g>
<g><path style="opacity:1" fill="#f8edec" d="M 371.5,318.5 C 371.779,328.926 370.946,339.26 369,349.5C 367.301,357.342 363.134,363.342 356.5,367.5C 356.072,356.728 356.905,346.062 359,335.5C 360.761,327.943 364.928,322.276 371.5,318.5 Z"/></g>
</svg>
