<?xml version="1.0" encoding="UTF-8"?>
<!DOCTYPE svg PUBLIC "-//W3C//DTD SVG 1.1//EN" "http://www.w3.org/Graphics/SVG/1.1/DTD/svg11.dtd">
<svg xmlns="http://www.w3.org/2000/svg" version="1.1" width="500px" height="500px" style="shape-rendering:geometricPrecision; text-rendering:geometricPrecision; image-rendering:optimizeQuality; fill-rule:evenodd; clip-rule:evenodd" xmlns:xlink="http://www.w3.org/1999/xlink">
<g><path style="opacity:1" fill="#fcf7f5" d="M -0.5,-0.5 C 166.167,-0.5 332.833,-0.5 499.5,-0.5C 499.5,166.167 499.5,332.833 499.5,499.5C 332.833,499.5 166.167,499.5 -0.5,499.5C -0.5,332.833 -0.5,166.167 -0.5,-0.5 Z"/></g>
<g><path style="opacity:1" fill="#582467" d="M 214.5,17.5 C 214.5,17.8333 214.5,18.1667 214.5,18.5C 214.5,68.1667 214.5,117.833 214.5,167.5C 208.833,167.5 203.167,167.5 197.5,167.5C 197.83,150.658 197.497,133.992 196.5,117.5C 198.464,88.3065 184.964,73.3065 156,72.5C 134.582,74.919 122.915,86.919 121,108.5C 120.333,199.167 120.333,289.833 121,380.5C 121.796,399.288 131.296,410.788 149.5,415C 164.046,417.368 176.879,413.868 188,404.5C 192.039,398.053 194.706,391.053 196,383.5C 196.5,350.502 196.667,317.502 196.5,284.5C 185.5,284.5 174.5,284.5 163.5,284.5C 163.5,262.167 163.5,239.833 163.5,217.5C 180.5,217.5 197.5,217.5 214.5,217.5C 214.5,302.167 214.5,386.833 214.5,471.5C 187.105,482.303 158.772,485.47 129.5,481C 90.9115,474.079 65.7448,451.912 54,414.5C 50.7232,403.393 48.7232,392.059 48,380.5C 47.3333,288.167 47.3333,195.833 48,103.5C 53.5492,45.6201 85.0492,13.1201 142.5,6C 167.404,4.39053 191.404,8.22386 214.5,17.5 Z"/></g>
<g><path style="opacity:1" fill="#e6414b" d="M 288.5,211.5 C 316.167,211.5 343.833,211.5 371.5,211.5C 371.5,144.833 371.5,78.1667 371.5,11.5C 396.167,11.5 420.833,11.5 445.5,11.5C 445.5,166.833 445.5,322.167 445.5,477.5C 420.833,477.5 396.167,477.5 371.5,477.5C 371.5,410.833 371.5,344.167 371.5,277.5C 343.833,277.5 316.167,277.5 288.5,277.5C 287.501,343.998 287.168,410.665 287.5,477.5C 263.167,477.5 238.833,477.5 214.5,477.5C 214.5,475.5 214.5,473.5 214.5,471.5C 214.5,386.833 214.5,302.167 214.5,217.5C 214.5,201.167 214.5,184.833 214.5,168.5C 214.5,168.167 214.5,167.833 214.5,167.5C 214.5,117.833 214.5,68.1667 214.5,18.5C 215.468,16.3926 215.802,14.0593 215.5,11.5C 239.5,11.5 263.5,11.5 287.5,11.5C 287.168,78.3354 287.501,145.002 288.5,211.5 Z"/></g>
<g><path style="opacity:1" fill="#f19296" d="M 288.5,211.5 C 287.501,145.002 287.168,78.3354 287.5,11.5C 263.5,11.5 239.5,11.5 215.5,11.5C 215.802,14.0593 215.468,16.3926 214.5,18.5C 214.5,18.1667 214.5,17.8333 214.5,17.5C 214.5,15.1667 214.5,12.8333 214.5,10.5C 239.167,10.5 263.833,10.5 288.5,10.5C 288.5,77.5 288.5,144.5 288.5,211.5 Z"/></g>
<g><path style="opacity:1" fill="#fcf6f5" d="M 196.5,117.5 C 196.5,134.5 196.5,151.5 196.5,168.5C 202.5,168.5 208.5,168.5 214.5,168.5C 214.5,184.833 214.5,201.167 214.5,217.5C 197.5,217.5 180.5,217.5 163.5,217.5C 163.5,239.833 163.5,262.167 163.5,284.5C 174.5,284.5 185.5,284.5 196.5,284.5C 196.667,317.502 196.5,350.502 196,383.5C 194.706,391.053 192.039,398.053 188,404.5C 176.879,413.868 164.046,417.368 149.5,415C 131.296,410.788 121.796,399.288 121,380.5C 120.333,289.833 120.333,199.167 121,108.5C 122.915,86.919 134.582,74.919 156,72.5C 184.964,73.3065 198.464,88.3065 196.5,117.5 Z"/></g>
<g><path style="opacity:1" fill="#6d3f79" d="M 196.5,117.5 C 197.497,133.992 197.83,150.658 197.5,167.5C 203.167,167.5 208.833,167.5 214.5,167.5C 214.5,167.833 214.5,168.167 214.5,168.5C 208.5,168.5 202.5,168.5 196.5,168.5C 196.5,151.5 196.5,134.5 196.5,117.5 Z"/></g>
<g><path style="opacity:1" fill="#fadede" d="M 288.5,278.5 C 288.5,278.167 288.5,277.833 288.5,277.5C 316.167,277.5 343.833,277.5 371.5,277.5C 371.5,344.167 371.5,410.833 371.5,477.5C 370.501,411.335 370.168,345.002 370.5,278.5C 343.167,278.5 315.833,278.5 288.5,278.5 Z"/></g>
<g><path style="opacity:1" fill="#f08a90" d="M 371.5,11.5 C 396.328,10.5023 421.328,10.169 446.5,10.5C 446.833,166.334 446.5,322.001 445.5,477.5C 445.5,322.167 445.5,166.833 445.5,11.5C 420.833,11.5 396.167,11.5 371.5,11.5 Z"/></g>
<g><path style="opacity:1" fill="#f5b2b4" d="M 288.5,277.5 C 288.5,277.833 288.5,278.167 288.5,278.5C 288.5,345.167 288.5,411.833 288.5,478.5C 263.661,478.831 238.994,478.498 214.5,477.5C 238.833,477.5 263.167,477.5 287.5,477.5C 287.168,410.665 287.501,343.998 288.5,277.5 Z"/></g>
</svg>
